<svg width="224" height="68" viewBox="0 0 224 68" fill="none" xmlns="http://www.w3.org/2000/svg">
<path d="M209.084 39.6782C210.641 44.0065 210.756 48.7223 209.413 53.1218C208.29 56.8936 206.682 60.4232 203.823 63.2727C202.491 64.5963 200.955 65.696 199.273 66.5292C198.129 67.1063 197.382 66.8539 196.902 65.6172C194.372 59.1608 194.939 52.8693 198.103 46.8251C199.881 43.2595 202.628 40.2666 206.028 38.1891C207.873 37.0916 208.022 37.1276 208.852 39.1166L209.084 39.6782Z" fill="#3F2875"/>
<path d="M222.75 51.741C221.32 56.1167 218.513 59.9125 214.748 62.5618C211.543 64.8496 208.106 66.6479 204.102 67.1374C202.239 67.3656 200.351 67.2908 198.511 66.9158C197.254 66.6685 196.821 66.0089 197.197 64.7362C199.171 58.0892 203.484 53.4723 209.693 50.6486C213.286 48.9263 217.291 48.2513 221.25 48.7008C223.384 48.9688 223.476 49.0873 222.91 51.1639C222.858 51.3494 222.801 51.5297 222.75 51.741Z" fill="#FFB0CF"/>
<path d="M180.68 60.5627C180.381 58.2336 180.132 55.9544 179.933 53.725C179.342 47.6791 179.045 42.5023 179.041 38.1946C179.041 37.353 179.067 36.0648 179.118 34.33C179.165 33.4901 179.191 32.6708 179.191 31.8773C179.273 26.2814 178.971 21.8243 178.284 18.5059C177.294 13.5043 175.338 9.49201 172.415 6.46906C168.217 2.15792 162.178 0.0023542 154.298 0.0023542C149.04 -0.0584095 143.836 1.0578 139.066 3.2692C137.435 4.03066 135.87 4.92691 134.387 5.94863C133.811 6.33069 133.263 6.75434 132.749 7.21621C132.355 7.50949 131.983 7.83156 131.636 8.17978C131.521 8.25831 131.427 8.36364 131.362 8.48665C131.297 8.60966 131.263 8.74663 131.263 8.8857C131.263 9.02477 131.297 9.16175 131.362 9.28475C131.427 9.40776 131.521 9.5131 131.636 9.59163L139.514 16.8055C139.591 16.8984 139.688 16.9732 139.797 17.0245C139.906 17.0758 140.025 17.1025 140.146 17.1025C140.266 17.1025 140.385 17.0758 140.494 17.0245C140.604 16.9732 140.7 16.8984 140.777 16.8055C141.322 16.374 141.893 15.9765 142.488 15.6152C143.386 15.0638 144.329 14.5881 145.306 14.193C148.158 13.0301 151.213 12.4502 154.292 12.4875C158.652 12.4875 161.699 13.4029 163.433 15.2339C165.117 16.9721 166.132 20.0431 166.479 24.447C150.99 23.4577 140.043 25.8108 133.64 31.5063C129.432 35.2369 127.328 40.0221 127.328 45.8619C127.328 52.3887 129.334 57.5157 133.347 61.2428C137.359 64.97 142.932 66.8027 150.067 66.7408C156.996 66.7408 162.989 64.6368 168.045 60.4287C168.241 62.3112 168.464 64.1679 168.715 65.9988C168.723 66.1163 168.755 66.2309 168.808 66.3359C168.862 66.441 168.935 66.5343 169.025 66.6106C169.115 66.6869 169.219 66.7445 169.331 66.7802C169.443 66.8158 169.561 66.8287 169.679 66.8181H180.381C181.123 66.8181 181.442 66.4471 181.344 65.7051C181.097 64.0081 180.876 62.294 180.68 60.5627ZM165.046 37.4526L164.984 37.7927L164.799 38.7098C162.841 46.7842 157.446 52.0143 148.485 54.2557C145.953 54.8697 143.322 54.9522 140.756 54.4979L140.627 54.4721C139.411 54.2299 139.349 54.1475 139.535 53.0912C140.385 48.3713 142.627 44.3315 146.79 41.3687C151.768 37.8236 157.58 36.1644 164.175 36.5405C165.041 36.5869 165.16 36.726 165.046 37.4526Z" fill="#FF698F"/>
<path d="M55.1345 9.8856C48.8962 3.4 41.3388 0.129716 32.4624 0.0747534C23.4004 0.026661 15.7245 3.22309 9.43469 9.66403C3.1449 16.105 0 24.0299 0 33.4388C0 42.652 3.26341 50.503 9.79023 56.9921C16.3171 63.4811 24.1699 66.7445 33.3486 66.7823C39.0484 66.8064 44.6563 65.3467 49.621 62.5468C54.6333 59.8228 58.8439 55.8325 61.8331 50.9737C61.922 50.8697 61.984 50.7454 62.0136 50.6118C62.0432 50.4783 62.0395 50.3394 62.0029 50.2076C61.9662 50.0758 61.8977 49.955 61.8034 49.8559C61.7091 49.7567 61.5919 49.6823 61.4621 49.6391L52.3108 44.2854C52.201 44.2113 52.0765 44.1619 51.9457 44.1408C51.815 44.1197 51.6813 44.1273 51.5538 44.1631C51.4263 44.1989 51.3081 44.262 51.2075 44.3481C51.1069 44.4342 51.0262 44.5411 50.9711 44.6615C49.0941 47.6277 46.4833 50.0592 43.3913 51.7208C40.8986 53.0712 38.1574 53.9006 35.3342 54.1589C32.511 54.4171 29.6647 54.0988 26.9684 53.2231C24.272 52.3475 21.7818 50.9328 19.649 49.0651C17.5162 47.1973 15.7854 44.9155 14.5617 42.3583L63.6056 38.133C63.7304 38.1368 63.8546 38.1136 63.9696 38.0652C64.0847 38.0167 64.188 37.9441 64.2726 37.8522C64.3571 37.7604 64.4209 37.6514 64.4596 37.5327C64.4984 37.414 64.5111 37.2883 64.497 37.1643V32.9184C64.497 24.0041 61.3762 16.3265 55.1345 9.8856ZM48.034 20.5003L47.5805 21.0155C43.952 24.9312 39.1649 27.5821 33.9206 28.5798C29.4583 29.4506 24.9857 29.6979 20.5749 28.2964C18.5223 27.6447 16.5902 26.6613 14.8554 25.3851C13.6703 24.5246 13.5363 23.6228 14.5565 22.4686C19.8845 16.4193 26.65 13.6265 34.5235 13.6317C39.1 13.5462 43.6078 14.7535 47.529 17.1149C49.6056 18.4186 49.6468 18.5886 48.034 20.5003Z" fill="#FF698F"/>
<path d="M128.108 1.48605C127.992 1.3655 127.852 1.27135 127.696 1.21C127.54 1.14865 127.373 1.12154 127.206 1.13051H114.469C114.265 1.10864 114.059 1.15226 113.881 1.25507C113.703 1.35788 113.562 1.51455 113.479 1.70246L95.7334 43.1821L79.6156 5.34031C77.9152 1.35723 74.4061 1.13051 74.4061 1.13051H64.2552C64.0998 1.11603 63.9432 1.14102 63.8 1.20317C63.6568 1.26532 63.5315 1.36262 63.4359 1.48605C63.3329 1.59992 63.263 1.73987 63.2339 1.89068C63.2049 2.04149 63.2177 2.19738 63.271 2.3414L88.602 61.5981C89.581 63.3655 91.4875 65.6894 94.7853 65.6894H100.412C100.643 65.7193 100.876 65.6705 101.076 65.5507C101.275 65.431 101.428 65.2474 101.51 65.0298L128.191 2.3414C128.272 2.20936 128.308 2.0543 128.293 1.89986C128.278 1.74543 128.213 1.60011 128.108 1.48605Z" fill="#FF698F"/>
</svg>
